 
 
<svg version="1.1" class="grid-letter" xmlns="http://www.w3.org/2000/svg" xmlns:xlink="http://www.w3.org/1999/xlink" x="0px" y="0px"
	 viewBox="0 0 74.8 83.1" enable-background="new 0 0 74.8 83.1" xml:space="preserve" height="100%" width="100%"  preserveAspectRatio="none">
<g class="bg">
	<rect  class="grid-letter-bg" width="74.8" height="83.1"/>
</g>
  <path class="grid-letter-path" d="M56.8,41.3h18v28.5c-8,8.9-19,13.3-33.1,13.3C29.9,83.1,20,79.2,12,71.4C4,63.6,0,53.7,0,41.8C0,29.9,4.1,19.9,12.2,12
	c8.2-8,18-12,29.5-12c11.5,0,21.5,3.8,30.1,11.4l-9.3,13.4c-3.6-3.1-6.9-5.3-9.9-6.5c-3-1.2-6.3-1.8-9.8-1.8c-6.8,0-12.6,2.3-17.2,7
	c-4.7,4.6-7,10.7-7,18.3c0,7.6,2.2,13.7,6.7,18.2c4.5,4.6,9.8,6.8,16,6.8c6.2,0,11.4-1.2,15.5-3.6V41.3z"/>
</svg>
