 
 
<svg version="1.1" class="grid-letter" xmlns="http://www.w3.org/2000/svg" xmlns:xlink="http://www.w3.org/1999/xlink" x="0px" y="0px"
	 viewBox="0 0 75.3 83.1" enable-background="new 0 0 75.3 83.1" xml:space="preserve" height="100%" width="100%"  preserveAspectRatio="none">
<g class="bg">
	<rect  class="grid-letter-bg" width="75.3" height="83.1"/>
</g>
  <path class="grid-letter-path" d="M41.7,66.3c8.8,0,16-3.5,21.6-10.5l11.5,11.8C65.7,78,55,83.1,42.6,83.1C30.2,83.1,20,79.2,12,71.4C4,63.6,0,53.7,0,41.8
	C0,29.9,4.1,19.9,12.2,12C20.4,4,30.4,0,42.2,0c13.2,0,24.2,5,33.1,15.1L64.1,27.7c-5.7-7-12.7-10.6-21.1-10.6
	c-6.7,0-12.5,2.2-17.3,6.6c-4.8,4.4-7.2,10.3-7.2,17.8s2.3,13.5,6.8,18C29.8,64.1,35.3,66.3,41.7,66.3z"/>
</svg>
