 
 
<svg version="1.1" class="grid-letter" xmlns="http://www.w3.org/2000/svg" xmlns:xlink="http://www.w3.org/1999/xlink" x="0px" y="0px"
	 viewBox="0 0 63.8 83.1" enable-background="new 0 0 63.8 83.1" xml:space="preserve" height="100%" width="100%"  preserveAspectRatio="none">
<g class="bg">
	<rect  class="grid-letter-bg" width="63.8" height="83.1"/>
</g>
  <path class="grid-letter-path" d="M24.5,17.9c-1.7,1.4-2.6,3.3-2.6,5.6c0,2.3,1.1,4.2,3.2,5.6c2.1,1.4,7,3,14.6,4.9c7.6,1.9,13.5,4.7,17.8,8.4
	c4.2,3.8,6.3,9.2,6.3,16.4c0,7.2-2.7,13-8.1,17.5s-12.5,6.7-21.3,6.7C21.6,83.1,10.2,78.4,0,69l10.7-13.1c8.7,7.6,16.7,11.4,24,11.4
	c3.3,0,5.9-0.7,7.8-2.1c1.9-1.4,2.8-3.3,2.8-5.7c0-2.4-1-4.3-3-5.7c-2-1.4-5.9-2.9-11.8-4.3c-9.3-2.2-16.2-5.1-20.5-8.7
	c-4.3-3.6-6.5-9.2-6.5-16.8c0-7.6,2.7-13.5,8.2-17.6C17.1,2.1,24,0,32.2,0c5.4,0,10.7,0.9,16.1,2.8c5.4,1.8,10,4.4,14,7.8l-9.1,13.1
	c-7-5.3-14.2-7.9-21.6-7.9C28.6,15.7,26.3,16.5,24.5,17.9z"/>
</svg>
